<?xml version="1.0" standalone="no"?>
<!DOCTYPE svg PUBLIC "-//W3C//DTD SVG 20010904//EN"
 "http://www.w3.org/TR/2001/REC-SVG-20010904/DTD/svg10.dtd">
<svg version="1.0" xmlns="http://www.w3.org/2000/svg"
 width="207.000000pt" height="187.000000pt" viewBox="0 0 207.000000 187.000000"
 preserveAspectRatio="xMidYMid meet">

<g transform="translate(0.000000,187.000000) scale(0.100000,-0.100000)"
fill="#000000" stroke="none">
<path d="M406 1233 l96 -118 112 -5 112 -5 -147 -260 c-141 -249 -146 -260
-131 -280 101 -126 136 -165 142 -158 4 4 121 202 260 438 138 237 263 447
276 468 l24 37 -420 0 -420 0 96 -117z"/>
<path d="M1060 988 c-118 -200 -219 -372 -226 -383 -12 -18 -5 -29 56 -105 39
-47 73 -86 77 -87 5 -2 103 157 218 352 l210 355 63 0 c34 0 62 -2 62 -4 0 -2
-70 -123 -155 -270 l-154 -268 76 -89 c41 -49 77 -89 78 -89 1 0 93 159 204
353 l201 353 0 122 0 122 -248 0 -248 0 -214 -362z"/>
</g>
</svg>
